<svg xmlns="http://www.w3.org/2000/svg" version="1.1" xmlns:xlink="http://www.w3.org/1999/xlink" width="1000" height="1000"><g clip-path="url(#SvgjsClipPath1217)"><rect width="1000" height="1000" fill="#ffffff"></rect><g transform="matrix(2,0,0,2,0,0)"><svg xmlns="http://www.w3.org/2000/svg" version="1.1" xmlns:xlink="http://www.w3.org/1999/xlink" width="500" height="500"><svg version="1.1" xmlns="http://www.w3.org/2000/svg" width="500" height="500">
<path d="M0 0 C165 0 330 0 500 0 C500 165 500 330 500 500 C335 500 170 500 0 500 C0 335 0 170 0 0 Z " fill="#FEFEFE" transform="translate(0,0)"></path>
<path d="M0 0 C1.36557749 1.12684017 2.68463409 2.30986646 3.98828125 3.5078125 C3.32828125 3.8378125 2.66828125 4.1678125 1.98828125 4.5078125 C0.23828125 3.6875 0.23828125 3.6875 -2.01171875 2.3828125 C-18.72458604 -6.18973581 -37.24424429 -8.37787714 -55.27734375 -2.8828125 C-65.43061584 0.89811309 -74.67992894 5.27898875 -82.41015625 13.0390625 C-84.01171875 14.5078125 -84.01171875 14.5078125 -86.01171875 14.5078125 C-86.2746875 15.0853125 -86.53765625 15.6628125 -86.80859375 16.2578125 C-88.07506165 18.62627194 -89.53493665 20.4543419 -91.26171875 22.5078125 C-103.68530606 38.34078343 -106.4840681 55.9699703 -105.01171875 75.5078125 C-104.42603646 79.72472496 -103.4755433 83.51609816 -102.01171875 87.5078125 C-101.65980469 88.49652344 -101.30789062 89.48523438 -100.9453125 90.50390625 C-97.86943682 98.47275907 -93.93580986 106.63216696 -87.796875 112.6953125 C-86.01171875 114.5078125 -86.01171875 114.5078125 -86.01171875 116.5078125 C-85.14160156 116.90419922 -85.14160156 116.90419922 -84.25390625 117.30859375 C-81.91993107 118.55690452 -80.15064271 119.98308532 -78.13671875 121.6953125 C-65.67799557 131.52682552 -51.75821731 136.1016711 -36.01171875 136.0703125 C-34.8299707 136.0693457 -33.64822266 136.06837891 -32.43066406 136.06738281 C-20.68221808 135.83413926 -10.25597547 133.28771791 -0.15234375 127.2421875 C0.8840625 126.66984375 1.92046875 126.0975 2.98828125 125.5078125 C3.64828125 125.8378125 4.30828125 126.1678125 4.98828125 126.5078125 C-14.24263142 143.24582909 -37.30350079 147.15226746 -62.01171875 145.5078125 C-82.58611607 142.75868039 -100.13932745 129.6223102 -112.82421875 113.8203125 C-126.35863264 94.75249182 -130.63384559 73.28816767 -127.71875 50.18603516 C-123.93155269 28.65907627 -109.89080903 10.41124715 -92.40307617 -1.92871094 C-65.47629229 -20.34127912 -26.34332613 -19.54009821 0 0 Z " fill="#82CC2B" transform="translate(296.01171875,134.4921875)"></path>
<path d="M0 0 C0.66 0 1.32 0 2 0 C4.43693938 5.66946438 6.87215413 11.33966556 9.3059082 17.01049805 C10.13065263 18.93159012 10.95583356 20.85249486 11.78149414 22.77319336 C15.90790469 32.37305548 20.0234673 41.97715448 24.02734375 51.62890625 C24.31646133 52.32112778 24.60557892 53.0133493 24.90345764 53.72654724 C28.27297699 61.90231539 29.87568137 70.28154673 26.375 78.75 C22.55495989 86.24264007 17.38699298 91.92213547 9.2109375 94.58203125 C1.83076758 95.97722238 -6.68839497 96.33577609 -13.26171875 92.32421875 C-19.02042398 87.93725004 -23.93824923 83.07987228 -26 76 C-27.54732864 63.72735226 -24.1553866 54.64639703 -19.1875 43.625 C-18.50207513 42.05149934 -17.81907571 40.47694007 -17.13842773 38.90136719 C-15.44198061 34.99075979 -13.71536621 31.09439279 -11.9786377 27.20153809 C-10.48562158 23.84285707 -9.0200778 20.47236486 -7.5546875 17.1015625 C-5.06439478 11.38842218 -2.54678627 5.6881718 0 0 Z " fill="#54AEE5" transform="translate(259,153)"></path>
<path d="M0 0 C13.29251011 11.41867608 23.7368135 28.30353476 25.16845703 46.09326172 C26.13898345 64.77691041 21.21831999 82.41432385 8.9609375 96.91796875 C-3.37052295 110.01093373 -18.67008975 119.13794425 -36.9609375 120.23828125 C-55.11626103 120.69725837 -72.35406431 116.86616794 -86 104 C-82.58241189 104 -81.04241839 104.8134014 -78 106.3125 C-63.95592694 112.78306769 -50.39381167 114.13099415 -35.484375 109.32421875 C-17.46262828 102.47514685 -6.01274855 92.51633638 1.95703125 74.8359375 C6.7312145 61.85445046 7.61453371 44.46342213 2.2578125 31.55859375 C1.84273438 30.71425781 1.42765625 29.86992187 1 29 C0.56429687 28.06285156 0.12859375 27.12570313 -0.3203125 26.16015625 C-8.06047052 10.74328413 -20.73845346 1.54838167 -36.8359375 -3.97265625 C-50.98114083 -8.04935694 -65.53223014 -6.97432672 -78.625 -0.25 C-79.42164063 0.19859375 -80.21828125 0.6471875 -81.0390625 1.109375 C-81.68617188 1.40328125 -82.33328125 1.6971875 -83 2 C-83.66 1.67 -84.32 1.34 -85 1 C-60.44603436 -19.36534797 -25.28746145 -19.27558354 0 0 Z " fill="#54AEE5" transform="translate(307,147)"></path>
<path d="M0 0 C2.51625 -0.061875 5.0325 -0.12375 7.625 -0.1875 C8.79603271 -0.22846802 8.79603271 -0.22846802 9.99072266 -0.27026367 C15.88566493 -0.33985362 19.84894285 1.13197668 24.375 5.0625 C26.75477223 9.36439595 26.89963018 13.1942832 26 18 C24.00748941 21.85113708 21.07783807 24.53788043 17 26 C14.07731258 26.23721659 11.17971244 26.18767654 8.25 26.125 C4.16625 26.063125 4.16625 26.063125 0 26 C0 17.42 0 8.84 0 0 Z " fill="#3C8DBE" transform="translate(268,326)"></path>
<path d="M0 0 C3.76239327 3.42035752 5.86090829 6.26226629 6.5 11.375 C5.84456807 16.61845543 4.39830404 19.60598616 0.5625 23.25 C-4.33945008 25.52590539 -8.6192198 25.6652348 -13.9375 24.875 C-18.09737092 22.83155464 -20.24460689 21.14898574 -21.9375 16.875 C-22.59158074 11.7716491 -22.77170134 7.33485235 -20.1875 2.8125 C-14.4244341 -2.15014008 -7.06665483 -2.70637844 0 0 Z " fill="#3E8EBF" transform="translate(309.9375,290.125)"></path>
<path d="M0 0 C2.701875 -0.061875 5.40375 -0.12375 8.1875 -0.1875 C9.02949951 -0.21481201 9.87149902 -0.24212402 10.73901367 -0.27026367 C15.26202577 -0.3202625 18.42000316 -0.09698139 22 3 C22.3125 6.4375 22.3125 6.4375 22 10 C22 11.32 22 12.64 22 14 C22.66 14.66 23.32 15.32 24 16 C23.9375 19.4375 23.9375 19.4375 23 23 C18.63083392 26.78200542 14.14025185 26.35404499 8.6875 26.1875 C5.820625 26.125625 2.95375 26.06375 0 26 C0 17.42 0 8.84 0 0 Z " fill="#3C8DBE" transform="translate(225,289)"></path>
<path d="M0 0 C5 0 5 0 6.39379883 1.37695312 C6.74466553 2.00537109 7.09553223 2.63378906 7.45703125 3.28125 C7.84697266 3.95800781 8.23691406 4.63476562 8.63867188 5.33203125 C9.02603516 6.04746094 9.41339844 6.76289063 9.8125 7.5 C10.21919922 8.21542969 10.62589844 8.93085938 11.04492188 9.66796875 C12.04674806 11.43589731 13.0256102 13.21680298 14 15 C14.63808594 14.00097656 15.27617187 13.00195312 15.93359375 11.97265625 C16.76816273 10.66922829 17.60280177 9.36584519 18.4375 8.0625 C18.85837891 7.40314453 19.27925781 6.74378906 19.71289062 6.06445312 C22.88671875 1.11328125 22.88671875 1.11328125 24 0 C25.65 0 27.3 0 29 0 C29 8.58 29 17.16 29 26 C27.02 26 25.04 26 23 26 C22.505 19.565 22.505 19.565 22 13 C21.0925 14.65 20.185 16.3 19.25 18 C17.703125 20.8125 17.703125 20.8125 16 23 C14.68 23 13.36 23 12 23 C10.02 19.37 8.04 15.74 6 12 C5.67 16.62 5.34 21.24 5 26 C3.35 26 1.7 26 0 26 C0 17.42 0 8.84 0 0 Z " fill="#3C8DBE" transform="translate(254,289)"></path>
<path d="M0 0 C6.6 0 13.2 0 20 0 C20 1.65 20 3.3 20 5 C15.38 5 10.76 5 6 5 C6 6.65 6 8.3 6 10 C9.96 10 13.92 10 18 10 C18 11.65 18 13.3 18 15 C14.04 15 10.08 15 6 15 C6 16.98 6 18.96 6 21 C10.62 21 15.24 21 20 21 C20 22.65 20 24.3 20 26 C13.4 26 6.8 26 0 26 C0 17.42 0 8.84 0 0 Z " fill="#3E8EBF" transform="translate(200,289)"></path>
<path d="M0 0 C7.59 0 15.18 0 23 0 C23 1.65 23 3.3 23 5 C20.36 5 17.72 5 15 5 C15 11.93 15 18.86 15 26 C12.69 26 10.38 26 8 26 C8 19.07 8 12.14 8 5 C5.36 5 2.72 5 0 5 C0 3.35 0 1.7 0 0 Z " fill="#4894C2" transform="translate(242,326)"></path>
<path d="M0 0 C1.98 0 3.96 0 6 0 C6 6.93 6 13.86 6 21 C10.62 21 15.24 21 20 21 C20 22.65 20 24.3 20 26 C13.4 26 6.8 26 0 26 C0 17.42 0 8.84 0 0 Z " fill="#4190C0" transform="translate(222,326)"></path>
<path d="M0 0 C2.99097304 2.54232708 3.84202557 4.1574697 4.5625 8 C3.78698584 12.13607554 2.38677089 13.54999553 -1 16 C-4.95779649 16.62491523 -7.00863886 16.61006839 -10.4375 14.5 C-12.64099302 10.97441116 -12.79669284 8.04985528 -12 4 C-9.20664469 -0.65559218 -5.02394308 -1.18392101 0 0 Z " fill="#F9FBFD" transform="translate(306,294)"></path>
<path d="M0 0 C8.05718867 -0.48102619 8.05718867 -0.48102619 12.0625 1.5625 C14 4 14 4 14.5 7.5 C13.99018374 11.06871381 13.56333571 12.53160265 11 15 C8 16 8 16 0 16 C0 10.72 0 5.44 0 0 Z " fill="#FBFCFD" transform="translate(274,331)"></path>
<path d="M0 0 C2 1 2 1 3.1875 3.5 C4.86679847 6.39876705 4.86679847 6.39876705 8.6875 6.8125 C10.3271875 6.9053125 10.3271875 6.9053125 12 7 C12 7.33 12 7.66 12 8 C10.741875 8.165 9.48375 8.33 8.1875 8.5 C5.41577045 9.15736595 4.33451746 9.46607963 2.80078125 11.9140625 C2.07007471 13.93152544 1.4673471 15.90667445 1 18 C0.67 18 0.34 18 0 18 C-0.020625 16.906875 -0.04125 15.81375 -0.0625 14.6875 C-0.56114043 11.04267663 -0.56114043 11.04267663 -2.625 9.8671875 C-4.78223035 8.93575266 -4.78223035 8.93575266 -8 8 C-7.401875 7.71125 -6.80375 7.4225 -6.1875 7.125 C-2.36322376 5.33106827 -2.36322376 5.33106827 -0.3125 1.875 C-0.209375 1.25625 -0.10625 0.6375 0 0 Z " fill="#8ED13F" transform="translate(221,198)"></path>
<path d="M0 0 C1.62463842 -0.05395478 3.24978541 -0.09277195 4.875 -0.125 C5.77992188 -0.14820313 6.68484375 -0.17140625 7.6171875 -0.1953125 C10 0 10 0 12 2 C11.67 3.32 11.34 4.64 11 6 C7.37 6 3.74 6 0 6 C0 4.02 0 2.04 0 0 Z " fill="#F8FBFC" transform="translate(231,304)"></path>
<path d="M0 0 C7.75 -0.125 7.75 -0.125 10 1 C10 2.65 10 4.3 10 6 C6.78548731 7.60725635 3.56387464 7.05748185 0 7 C0 4.69 0 2.38 0 0 Z " fill="#E5F0F6" transform="translate(231,293)"></path>
<path d="M0 0 C2.625 0.375 2.625 0.375 5 1 C5.042721 2.66611905 5.04063832 4.33382885 5 6 C4 7 4 7 1.4375 7.0625 C0.2309375 7.0315625 0.2309375 7.0315625 -1 7 C-1.625 4.625 -1.625 4.625 -2 2 C-1.34 1.34 -0.68 0.68 0 0 Z " fill="#4592C1" transform="translate(299,345)"></path>
<path d="M0 0 C0.66 0.33 1.32 0.66 2 1 C-1.11612913 6.96129051 -4.77425849 8.7385127 -11 11 C-10.65305208 8.14387516 -10.23345399 7.19170164 -7.96875 5.33203125 C-6.74671875 4.57986328 -6.74671875 4.57986328 -5.5 3.8125 C-4.6853125 3.30332031 -3.870625 2.79414063 -3.03125 2.26953125 C-2.3609375 1.85058594 -1.690625 1.43164062 -1 1 C-0.67 0.67 -0.34 0.34 0 0 Z " fill="#EDF7E9" transform="translate(306,252)"></path>
<path d="M0 0 C0.433125 0.9590625 0.433125 0.9590625 0.875 1.9375 C1.82823451 4.15206079 1.82823451 4.15206079 4 5 C4 5.66 4 6.32 4 7 C3.34 7 2.68 7 2 7 C1.67 8.65 1.34 10.3 1 12 C-3 7.25 -3 7.25 -3 5 C-2.34 5 -1.68 5 -1 5 C-0.67 3.35 -0.34 1.7 0 0 Z " fill="#ECF6FC" transform="translate(261,184)"></path>
<path d="M0 0 C0.66 0.33 1.32 0.66 2 1 C0.5665848 2.15093925 -0.87188909 3.29558035 -2.3125 4.4375 C-3.51326172 5.39462891 -3.51326172 5.39462891 -4.73828125 6.37109375 C-7 8 -7 8 -10 9 C-9.77734375 7.17578125 -9.77734375 7.17578125 -9 5 C-7.00390625 3.48046875 -7.00390625 3.48046875 -4.5625 2.1875 C-3.35787109 1.52814453 -3.35787109 1.52814453 -2.12890625 0.85546875 C-1.42636719 0.57316406 -0.72382813 0.29085938 0 0 Z " fill="#90D244" transform="translate(299,260)"></path>
<path d="M0 0 C0.66 0.33 1.32 0.66 2 1 C2 1.66 2 2.32 2 3 C0.71349294 3.69710731 -0.57940665 4.38242876 -1.875 5.0625 C-2.95394531 5.63677734 -2.95394531 5.63677734 -4.0546875 6.22265625 C-4.69664062 6.47917969 -5.33859375 6.73570312 -6 7 C-6.66 6.67 -7.32 6.34 -8 6 C-5.36 4.02 -2.72 2.04 0 0 Z " fill="#66B7E8" transform="translate(230,142)"></path>
<path d="M0 0 C1.625 1.625 1.625 1.625 3 4 C2.1875 7.25 2.1875 7.25 1 10 C-0.625 8.375 -0.625 8.375 -2 6 C-1.1875 2.75 -1.1875 2.75 0 0 Z " fill="#9AD655" transform="translate(219,172)"></path>
<path d="M0 0 C0.99 0.99 1.98 1.98 3 3 C2.34 4.98 1.68 6.96 1 9 C0.67 7.68 0.34 6.36 0 5 C-0.66 5 -1.32 5 -2 5 C-2 4.34 -2 3.68 -2 3 C-1.34 3 -0.68 3 0 3 C0 2.01 0 1.02 0 0 Z " fill="#DAEDF9" transform="translate(250,198)"></path>
<path d="M0 0 C0.9075 0.391875 1.815 0.78375 2.75 1.1875 C-0.00924185 2.99161967 -1.13972103 3.2002245 -4.5 2.8125 C-5.4075 2.60625 -6.315 2.4 -7.25 2.1875 C-4.52596974 -0.53653026 -3.86366821 -0.96591705 0 0 Z " fill="#DAEDF9" transform="translate(273.25,199.8125)"></path>
<path d="M0 0 C0.99 1.32 1.98 2.64 3 4 C2.01 4.99 1.02 5.98 0 7 C-0.99 5.68 -1.98 4.36 -3 3 C-2.01 2.67 -1.02 2.34 0 2 C0 1.34 0 0.68 0 0 Z " fill="#8DD13F" transform="translate(232,185)"></path>
<path d="M0 0 C3.36591866 1.44253657 5.51047079 3.33264727 8 6 C4.54074837 4.7508258 1.85306797 3.32472205 -1 1 C-0.67 0.67 -0.34 0.34 0 0 Z " fill="#93D449" transform="translate(292,133)"></path>
</svg></svg></g></g><defs><clipPath id="SvgjsClipPath1217"><rect width="1000" height="1000" x="0" y="0" rx="350" ry="350"></rect></clipPath></defs></svg>